<?xml version="1.0" standalone="no"?>
<!DOCTYPE svg PUBLIC "-//W3C//DTD SVG 20010904//EN"
 "http://www.w3.org/TR/2001/REC-SVG-20010904/DTD/svg10.dtd">
<svg version="1.0" xmlns="http://www.w3.org/2000/svg"
 width="915.000000pt" height="915.000000pt" viewBox="0 0 915.000000 915.000000"
 preserveAspectRatio="xMidYMid meet">
<metadata>
Created by potrace 1.11, written by Peter Selinger 2001-2013
</metadata>
<g transform="translate(0.000000,915.000000) scale(0.100000,-0.100000)"
fill="#000000" stroke="none">
<path d="M1246 7260 l-300 -5 -152 -865 c-353 -2001 -785 -4447 -790 -4473
l-6 -27 300 0 300 0 6 27 c5 25 79 442 515 2923 66 371 166 939 222 1263 l104
587 303 0 c284 0 303 -1 298 -17 -3 -10 -48 -261 -100 -558 -212 -1203 -736
-4172 -742 -4198 l-6 -27 300 0 301 0 10 53 c6 28 73 410 150 847 189 1075
449 2554 579 3290 l107 605 303 3 302 2 -5 -22 c-5 -21 -108 -604 -680 -3848
-85 -481 -157 -887 -161 -902 l-6 -28 301 0 301 0 5 23 c3 12 77 432 165 932
261 1491 750 4266 761 4325 5 30 12 65 15 78 l4 22 -1202 -2 c-662 -2 -1338
-5 -1502 -8z"/>
<path d="M4545 7238 c-6 -28 -725 -4105 -725 -4113 0 -3 767 -5 1704 -5 l1704
0 6 28 c3 15 71 401 151 857 80 457 147 840 150 853 l5 22 -850 0 c-835 0
-850 0 -850 19 0 16 212 1233 375 2151 19 107 35 198 35 202 0 4 -382 8 -850
8 l-850 0 -5 -22z m1039 -585 c-2 -10 -71 -403 -154 -873 -83 -470 -152 -865
-155 -877 l-5 -23 -285 0 c-204 0 -285 3 -285 11 0 12 32 198 211 1207 54 310
99 565 99 568 0 2 130 4 289 4 270 0 289 -1 285 -17z m1277 -2368 c5 -4 -86
-536 -96 -562 -3 -10 -241 -13 -1140 -13 -624 0 -1135 1 -1135 3 1 19 101 560
105 567 6 10 2256 15 2266 5z"/>
<path d="M6702 6393 c-84 -478 -152 -876 -152 -885 0 -17 47 -18 850 -18 l850
0 -5 -22 c-3 -13 -120 -673 -260 -1468 -141 -795 -258 -1460 -261 -1477 l-6
-33 -2006 -2 -2006 -3 -48 -270 c-26 -148 -49 -282 -52 -298 l-6 -27 2307 2
2307 3 213 1210 c356 2020 523 2972 523 2978 0 4 -382 7 -850 7 -595 0 -850 3
-850 11 0 11 87 508 95 546 l5 23 848 2 847 3 46 260 c25 143 48 275 52 293
l7 32 -1148 0 -1147 0 -153 -867z"/>
</g>
</svg>
