<svg id="Layer_1" data-name="Layer 1" xmlns="http://www.w3.org/2000/svg" viewBox="0 0 914.61 537.82"><defs><style>.cls-1{fill:#090;}.cls-2{opacity:0.1;}.cls-3{fill:#fff;}</style></defs><title>mbs-logo</title><polygon class="cls-1" points="734.59 60.55 724.48 117.91 894.97 117.91 820.98 537.54 360 537.54 370.57 477.54 771.55 477.54 824.39 177.91 653.9 177.91 685.17 0.55 914.61 0.55 904.03 60.55 734.59 60.55"/><path class="cls-1" d="M583.16,238.79,625.17.55H454.68L381.56,415.26h341l31.11-176.47ZM501,60.05h57.36l-31.49,178.6H469.5ZM676.23,355.76H448.85L459,298.4H686.34Z"/><polygon class="cls-1" points="394.78 0 300 537.54 240 537.54 324.57 57.91 264.57 57.91 179.95 537.82 119.95 537.82 204.57 57.91 144.57 57.91 60 537.54 0 537.54 94.68 0.55 394.78 0"/><g class="cls-2"><polygon points="793.03 355.76 771.55 477.54 370.57 477.54 360 537.54 820.98 537.54 853.03 355.76 793.03 355.76"/><polygon points="733.02 355.76 722.53 415.26 381.56 415.26 392.06 355.76 733.02 355.76"/><polygon points="32.05 355.76 0 537.54 60 537.54 92.05 355.76 32.05 355.76"/><polygon points="152.05 355.76 119.95 537.82 179.95 537.82 212.05 355.76 152.05 355.76"/><polygon points="272.05 355.76 240 537.54 300 537.54 332.05 355.76 272.05 355.76"/></g><g class="cls-2"><polygon class="cls-3" points="894.97 117.91 724.48 117.91 734.59 60.55 904.03 60.55 914.61 0.55 685.17 0.55 653.9 177.91 824.39 177.91 824.39 177.91 884.39 177.91 894.97 117.91"/><polygon class="cls-3" points="625.16 0.55 593.89 177.91 537.57 177.91 558.35 60.05 500.99 60.05 480.2 177.91 423.4 177.91 454.68 0.55 625.16 0.55"/><polygon class="cls-3" points="394.78 0 94.68 0.55 63.41 177.91 123.41 177.91 144.57 57.91 204.57 57.91 183.41 177.91 243.41 177.91 264.57 57.91 324.57 57.91 303.41 177.91 363.41 177.91 394.78 0"/></g></svg>